<svg xmlns="http://www.w3.org/2000/svg" width="28" height="28" viewBox="0 0 28 28" fill="none" class="_root_fghm4_1 _color-fill-accent_fghm4_32">
<path fill-rule="evenodd" clip-rule="evenodd" d="M3 12.68C3 9.99175 3 8.64763 3.52317 7.62085C3.98336 6.71767 4.71767 5.98336 5.62085 5.52317C6.64763 5 7.99175 5 10.68 5H16.92C19.6083 5 20.9524 5 21.9792 5.52317C22.8824 5.98336 23.6167 6.71767 24.0769 7.62085C24.1692 7.80212 24.2453 7.99329 24.3079 8.2H21C19.5116 8.2 18.7674 8.2 18.1604 8.37823C16.7236 8.80009 15.6001 9.92366 15.1782 11.3604C15 11.9674 15 12.7116 15 14.2C15 15.6884 15 16.4326 15.1782 17.0396C15.6001 18.4763 16.7236 19.5999 18.1604 20.0218C18.7674 20.2 19.5116 20.2 21 20.2H24.3079C24.2453 20.4067 24.1692 20.5979 24.0769 20.7792C23.6167 21.6823 22.8824 22.4166 21.9792 22.8768C20.9524 23.4 19.6083 23.4 16.92 23.4H10.68C7.99175 23.4 6.64763 23.4 5.62085 22.8768C4.71767 22.4166 3.98336 21.6823 3.52317 20.7792C3 19.7524 3 18.4082 3 15.72V12.68ZM16.6 14.1999C16.6 12.7072 16.6 11.9608 16.8772 11.385C17.1525 10.8135 17.6136 10.3524 18.1851 10.0772C18.7609 9.7999 19.5072 9.7999 21 9.7999H22.6C24.0927 9.7999 24.8391 9.7999 25.4148 10.0772C25.9864 10.3524 26.4475 10.8135 26.7227 11.385C27 11.9608 27 12.7072 27 14.1999C27 15.6926 27 16.439 26.7227 17.0148C26.4475 17.5863 25.9864 18.0474 25.4148 18.3226C24.8391 18.5999 24.0927 18.5999 22.6 18.5999H21C19.5072 18.5999 18.7609 18.5999 18.1851 18.3226C17.6136 18.0474 17.1525 17.5863 16.8772 17.0148C16.6 16.439 16.6 15.6926 16.6 14.1999ZM21.8 14.1999C21.8 15.0836 21.0836 15.7999 20.2 15.7999C19.3163 15.7999 18.6 15.0836 18.6 14.1999C18.6 13.3162 19.3163 12.5999 20.2 12.5999C21.0836 12.5999 21.8 13.3162 21.8 14.1999Z" fill="#0099FF"></path></svg>